<svg xmlns="http://www.w3.org/2000/svg" viewBox="0 0 91.269 93">
  <defs>
    <style>
      .cls-1 {
        fill: none;
        stroke: #655b52;
        stroke-width: 3px;
      }
    </style>
  </defs>
  <g id="shop" transform="translate(-3.423 1.5)">
    <g id="Group_80" data-name="Group 80" transform="translate(4.923)">
      <g id="Group_79" data-name="Group 79">
        <path id="Path_29" data-name="Path 29" class="cls-1" d="M93.081,36.508,84.427,2.214A2.7,2.7,0,0,0,81.942,0H16.173a2.7,2.7,0,0,0-2.484,2.214L5.035,36.508a3.7,3.7,0,0,0-.112.9c0,6.267,3.1,11.678,7.548,14.152l.163.089q.225.121.454.231c.07.034.14.068.211.1q.135.062.272.12.174.074.351.143.141.055.284.105t.312.107c.069.022.137.046.207.067.157.048.316.091.475.132l.189.046c.17.04.341.078.513.11l.108.018c.161.028.323.053.486.075l.129.017q.278.033.561.051l.124.007c.2.011.4.018.6.018a10.987,10.987,0,0,0,4.17-.825A11.86,11.86,0,0,0,23.8,51.3q.166-.1.329-.209a12.914,12.914,0,0,0,1.258-.945q.151-.129.3-.262a14.7,14.7,0,0,0,2.6-3.128,14.71,14.71,0,0,0,2.6,3.128q.148.133.3.262a12.934,12.934,0,0,0,1.258.945q.163.108.329.209a11.848,11.848,0,0,0,1.724.876,10.952,10.952,0,0,0,8.34,0,11.859,11.859,0,0,0,1.724-.876q.166-.1.329-.209a12.913,12.913,0,0,0,1.258-.945q.151-.129.3-.262a14.7,14.7,0,0,0,2.6-3.128,14.715,14.715,0,0,0,2.6,3.128q.148.133.3.262a12.935,12.935,0,0,0,1.258.945q.163.108.329.209a11.848,11.848,0,0,0,1.724.876,10.952,10.952,0,0,0,8.34,0,11.861,11.861,0,0,0,1.724-.876q.166-.1.329-.209a12.913,12.913,0,0,0,1.258-.945q.151-.129.3-.262a14.7,14.7,0,0,0,2.6-3.128,14.711,14.711,0,0,0,2.6,3.128q.148.133.3.262a12.935,12.935,0,0,0,1.258.945q.163.108.329.209a11.849,11.849,0,0,0,1.724.876,10.99,10.99,0,0,0,4.17.825c.2,0,.4-.007.6-.018l.124-.007q.282-.019.561-.051l.129-.017q.244-.032.486-.074l.108-.018c.172-.032.343-.07.513-.11l.189-.046c.159-.041.318-.084.475-.132.069-.021.138-.045.207-.067q.157-.051.312-.107t.284-.105q.177-.069.351-.143.137-.058.272-.12c.071-.033.141-.066.211-.1q.229-.111.454-.231l.163-.089c4.451-2.474,7.548-7.886,7.548-14.152A3.665,3.665,0,0,0,93.081,36.508Z" transform="translate(-4.923)"/>
      </g>
    </g>
    <g id="Group_82" data-name="Group 82" transform="translate(26.454 59.863)">
      <g id="Group_81" data-name="Group 81">
        <rect id="Rectangle_70" data-name="Rectangle 70" class="cls-1" width="18.706" height="30.137"/>
      </g>
    </g>
    <g id="Group_84" data-name="Group 84" transform="translate(56.862 53.354)">
      <g id="Group_83" data-name="Group 83">
        <rect id="Rectangle_71" data-name="Rectangle 71" class="cls-1" width="14.549" height="10.392"/>
      </g>
    </g>
    <g id="Group_86" data-name="Group 86" transform="translate(13.237 37.234)">
      <g id="Group_85" data-name="Group 85">
        <path id="Path_30" data-name="Path 30" class="cls-1" d="M110.118,265.956a14.792,14.792,0,0,1-7.951-2.386,17.175,17.175,0,0,1-2.046-1.536,17.176,17.176,0,0,1-2.046,1.536,14.792,14.792,0,0,1-7.951,2.386h13.329c1.38,0,2.5,1.4,2.5,3.118V285.7c0,1.722-1.119,3.118-2.5,3.118H86.792c-1.38,0-2.5-1.4-2.5-3.118V269.073c0-1.722,1.119-3.118,2.5-3.118h3.332a14.792,14.792,0,0,1-7.951-2.386,17.174,17.174,0,0,1-2.046-1.536,17.164,17.164,0,0,1-2.046,1.536,14.44,14.44,0,0,1-15.9,0,17.174,17.174,0,0,1-2.046-1.536,17.162,17.162,0,0,1-2.046,1.536,14.792,14.792,0,0,1-7.951,2.386,14.347,14.347,0,0,1-5.831-1.248v46.974c0,1.722,1.119,3.118,2.5,3.118h7.5V281.544c0-1.722,1.119-3.118,2.5-3.118H76.8c1.38,0,2.5,1.4,2.5,3.118V314.8H113.45c1.38,0,2.5-1.4,2.5-3.118V264.707A14.348,14.348,0,0,1,110.118,265.956Z" transform="translate(-44.307 -262.033)"/>
      </g>
    </g>
  </g>
</svg>
